<?xml version="1.0" encoding="utf-8"?>
<svg version="1.1" xmlns="http://www.w3.org/2000/svg" viewBox="0 0 145 145">
<style type="text/css">
	.st1{fill:#6675FF;}
</style>
<g id="icon" transform="translate(-928, -495)">
	<g>
		<path class="st1" d="M1003.81,544.99c7.19,1.01,13.3,5.33,16.77,11.38h8.34c-4.15-10.25-13.69-17.73-25.11-18.93V544.99z"/>
	</g>
	<g>
		<path class="st1" d="M1070.17,587.54l-32.86,0c-3.38,6.58-8.47,12.13-14.69,16.07c-0.04,0.02-0.07,0.04-0.11,0.06l6.29,11.87
			l5.51-2.92l7.6,14.35c0.99-0.65,2-1.32,3.02-2.04C1056.94,615.59,1065.92,602.56,1070.17,587.54z"/>
	</g>
	<g>
		<path class="st1" d="M1018.54,620.97l-6.68-12.61c-0.51,0.14-1.01,0.31-1.53,0.44c-2.63,0.64-5.35,1.02-8.14,1.13
			c-0.53,0.02-1.07,0.06-1.61,0.06c-22.78,0-41.25-18.47-41.25-41.25s18.47-41.25,41.25-41.25c16.74,0,31.14,9.98,37.61,24.3h32.91
			c-7.3-32.22-36.09-56.28-70.51-56.28c-39.94,0-72.32,32.38-72.32,72.32c0,39.94,32.38,72.32,72.32,72.32
			c3.92,0,7.77-0.32,11.52-0.92c0,0,3-0.23,8.09-1.78l-7.17-13.54L1018.54,620.97z"/>
	</g>
</g>
</svg>
