<?xml version="1.0" encoding="utf-8"?>
<!-- Generator: Adobe Illustrator 27.2.0, SVG Export Plug-In . SVG Version: 6.00 Build 0)  -->
<svg version="1.1" id="Layer_1" xmlns="http://www.w3.org/2000/svg" xmlns:xlink="http://www.w3.org/1999/xlink" x="0px" y="0px"
	 viewBox="0 0 32 32" style="enable-background:new 0 0 32 32;" xml:space="preserve">
<style type="text/css">
	.st0{fill:#6675FF;}
</style>
<g id="icon">
	<g>
		<path class="st0" d="M16.79,11.6c1.39,0.19,2.56,1.03,3.23,2.19h1.61c-0.8-1.98-2.64-3.42-4.84-3.65V11.6z"/>
	</g>
	<g>
		<path class="st0" d="M29.59,19.8l-6.34,0c-0.65,1.27-1.63,2.34-2.83,3.1c-0.01,0-0.01,0.01-0.02,0.01l1.21,2.29l1.06-0.56
			l1.47,2.77c0.19-0.13,0.39-0.25,0.58-0.39C27.04,25.21,28.77,22.7,29.59,19.8z"/>
	</g>
	<g>
		<path class="st0" d="M19.63,26.25l-1.29-2.43c-0.1,0.03-0.19,0.06-0.29,0.08c-0.51,0.12-1.03,0.2-1.57,0.22
			c-0.1,0-0.21,0.01-0.31,0.01c-4.39,0-7.95-3.56-7.95-7.95s3.56-7.95,7.95-7.95c3.23,0,6,1.92,7.25,4.69h6.34
			C28.36,6.7,22.81,2.06,16.17,2.06C8.47,2.06,2.23,8.3,2.23,16c0,7.7,6.24,13.94,13.94,13.94c0.76,0,1.5-0.06,2.22-0.18
			c0,0,0.58-0.04,1.56-0.34l-1.38-2.61L19.63,26.25z"/>
	</g>
</g>
</svg>
